:SAMPLES-PER-SECOND 30
:FULLY-SPECIFIED
:DEGREES
373
root  -69.5481 30.2079 49.5926 -155.529 -27.0826 176.183
RightUpLeg  -48.2418 -14.0672 13.2977
RightLeg  66.1507 -5.87607 -11.229
RightFoot  -26.6102 1.28911 5.82498
RightToes  -17.9844 -0.0705101 -0.160422
Spine  13.2193 1.05323 -6.7353
Spine1  23.5414 2.96339 -10.9471
HEad  22.3688 -23.4268 30.7175
LeftShoulder1  0 -2.42657e-020 -4.95415e-022
LeftArm  78.1156 -26.4851 -70.2603
LeftForeArm  99.7786 -8.20847 -1.30052
LeftHand  0.0816539 -5.46075 -2.08465
RightShoulder  0 2.42657e-020 1.07489e-018
RightArm  -11.7898 6.28437 90.9536
RightForeArm  38.736 39.1013 8.23543
RightHand  -1.47666 25.1764 -6.23717
LeftUpLeg  -42.3061 -0.566214 6.93671
LeftLeg  51.7485 1.22827 1.35907
LeftFoot  -16.5784 -0.0807084 -0.553971
LeftToes  -38.5644 1.18758e-006 1.19596e-007
374
root  -69.4784 30.913 48.3609 -156.9 -21.706 178.28
RightUpLeg  -52.1838 -15.4595 16.4881
RightLeg  59.8351 -6.63063 -9.84714
RightFoot  -23.8939 0.949767 4.86423
RightToes  -21.3943 -0.0893667 -0.187937
Spine  11.8379 1.05439 -6.60529
Spine1  21.4528 3.4145 -12.9764
HEad  24.4729 -21.2108 31.6917
LeftShoulder1  0 -2.42657e-020 -4.95415e-022
LeftArm  70.9024 -20.3823 -61.3425
LeftForeArm  93.9595 -17.8638 -3.10873
LeftHand  -0.204417 -15.849 1.09897
RightShoulder  0 2.42657e-020 1.07489e-018
RightArm  -7.00062 0.30592 89.3274
RightForeArm  37.2626 42.0826 9.16508
RightHand  -1.59693 25.4889 -6.68375
LeftUpLeg  -35.0736 2.73696 8.1325
LeftLeg  45.4698 2.84458 2.53317
LeftFoot  -15.1026 -0.137841 -1.03979
LeftToes  -37.5597 1.18758e-006 1.19596e-007
375
root  -69.523 31.5592 46.8344 -158.815 -16.3678 179.139
RightUpLeg  -53.9411 -18.0105 19.4742
RightLeg  52.1648 -7.25554 -8.16639
RightFoot  -22.6885 0.770607 4.21737
RightToes  -20.7845 -0.0858747 -0.183099
Spine  10.4217 1.05729 -6.29989
Spine1  19.4133 3.24772 -12.9309
HEad  26.7625 -21.8866 30.3642
LeftShoulder1  0 -2.42657e-020 -4.95415e-022
LeftArm  73.2741 -9.70401 -57.0242
LeftForeArm  88.869 -17.9349 -3.13953
LeftHand  -1.08506 -32.2086 3.38768
RightShoulder  0 2.42657e-020 1.07489e-018
RightArm  -5.28388 -4.972 87.3531
RightForeArm  35.1387 42.6509 9.35429
RightHand  -1.52828 25.0783 -6.49514
LeftUpLeg  -25.9985 5.26601 8.43451
LeftLeg  38.6054 4.709 3.27558
LeftFoot  -11.604 -0.122442 -1.20496
LeftToes  -39.698 1.18758e-006 1.19596e-007
376
root  -69.5286 32.0985 45.0334 -161.782 -10.4599 179.275
RightUpLeg  -52.8687 -20.7605 22.4471
RightLeg  42.645 -8.30015 -6.68193
RightFoot  -20.9605 0.631509 3.79059
RightToes  -20.1116 -0.0820819 -0.177719
Spine  9.42235 1.07779 -6.03922
Spine1  17.9311 3.27071 -12.7796
HEad  29.4769 -23.3293 29.4882
LeftShoulder1  0 -2.42657e-020 -4.95415e-022
LeftArm  91.4054 3.80856 -53.7024
LeftForeArm  64.9761 -12.4506 -2.17289
LeftHand  3.25833 -35.6807 -10.4722
RightShoulder  0 2.42657e-020 1.07489e-018
RightArm  -6.13849 -10.2699 86.7227
RightForeArm  33.9666 43.6663 9.69863
RightHand  -1.36326 24.9189 -5.79568
LeftUpLeg  -15.8814 8.90746 8.5046
LeftLeg  32.9145 5.08305 2.83444
LeftFoot  -5.6283 -0.0310781 -0.63224
LeftToes  -45.1777 1.18758e-006 1.19596e-007
377
root  -69.4841 32.3538 43.174 -164.546 -5.06323 178.429
RightUpLeg  -51.4571 -23.8946 25.709
RightLeg  33.1043 -9.84634 -5.51694
RightFoot  -19.0366 0.553013 3.67501
RightToes  -21.8252 -0.0918655 -0.191333
Spine  8.79723 0.823843 -5.3954
Spine1  17.0535 2.56192 -11.3782
HEad  31.1508 -25.0753 25.9624
LeftShoulder1  0 -2.42657e-020 -4.95415e-022
LeftArm  -96.9539 14.2742 -49.9785
LeftForeArm  -109.501 -0.354596 0.241914
LeftHand  4.80263 -18.6913 -28.9707
RightShoulder  0 2.42657e-020 1.07489e-018
RightArm  -9.41678 -15.9079 86.3627
RightForeArm  39.8157 48.7277 11.6068
RightHand  -1.74402 25.1079 -7.4521
LeftUpLeg  -9.10583 13.035 8.63583
LeftLeg  32.9251 3.25944 1.81913
LeftFoot  1.6498 -0.000995697 0.069145
LeftToes  -53.5868 1.18758e-006 1.19596e-007
378
root  -69.4021 32.4315 41.2714 -166.529 -1.1979 176.777
RightUpLeg  -50.4408 -27.6311 29.0509
RightLeg  24.6441 -10.1203 -3.85197
RightFoot  -18.0591 0.473586 3.35718
RightToes  -21.1332 -0.0878654 -0.18587
Spine  8.66461 0.16368 -5.33614
Spine1  16.9935 1.16913 -11.0649
HEad  31.0054 -26.1982 25.2153
LeftShoulder1  0 -2.42657e-020 -4.95415e-022
LeftArm  -49.0367 33.1897 -61.0866
LeftForeArm  -163.763 -26.7709 -4.66468
LeftHand  8.35773 -37.7764 -24.4823
RightShoulder  0 2.42657e-020 1.07489e-018
RightArm  -12.6478 -19.0706 87.5318
RightForeArm  41.2983 51.2262 12.7043
RightHand  -2.02618 25.1943 -8.6809
LeftUpLeg  -7.10375 13.471 8.5853
LeftLeg  38.9619 -0.236117 -0.172205
LeftFoot  11.0635 0.0116031 -0.119817
LeftToes  -60.1246 1.18758e-006 1.19596e-007
379
root  -69.3454 32.1869 39.2678 -169.463 2.46209 174.752
RightUpLeg  -47.5975 -28.1494 27.8196
RightLeg  21.8818 -9.8774 -3.22733
RightFoot  -17.5084 0.426091 3.14416
RightToes  -22.045 -0.0931497 -0.193058
Spine  8.75137 -0.482256 -5.07751
Spine1  17.3198 -0.20598 -10.4133
HEad  31.2585 -28.2141 23.6229
LeftShoulder1  0 -2.42657e-020 -4.95415e-022
LeftArm  -48.3193 41.1025 -70.4284
LeftForeArm  -163.904 -32.3604 -5.9526
LeftHand  9.42408 -36.9563 -28.0862
RightShoulder  0 2.42657e-020 1.07489e-018
RightArm  -15.315 -20.895 88.365
RightForeArm  39.5153 52.3824 13.2587
RightHand  -2.0855 24.8999 -9.05806
LeftUpLeg  -6.50742 11.7045 8.25723
LeftLeg  48.2804 -4.06974 -4.01022
LeftFoot  20.5876 0.378822 -2.0856
LeftToes  -55.7236 1.18758e-006 1.19596e-007
380
root  -69.347 31.5788 37.2422 -172.289 6.10379 172.671
RightUpLeg  -42.3743 -21.4197 20.8352
RightLeg  22.9 -13.9881 -4.81359
RightFoot  -18.215 0.701387 4.7509
RightToes  -12.5896 -0.0441116 -0.114738
Spine  8.73516 -1.21168 -4.66211
Spine1  17.4017 -1.77154 -9.48687
HEad  30.2312 -30.2188 22.0085
LeftShoulder1  0 -2.42657e-020 -4.95415e-022
LeftArm  -47.2847 47.3991 -81.8777
LeftForeArm  -164.009 -36.4346 -6.99605
LeftHand  10.3688 -36.0831 -31.5061
RightShoulder  0 2.42657e-020 1.07489e-018
RightArm  -15.6826 -21.6044 88.1175
RightForeArm  36.2867 52.6243 13.3815
RightHand  -2.05279 23.2243 -9.59807
LeftUpLeg  -7.29054 8.16671 7.27667
LeftLeg  58.6236 -8.32136 -11.6632
LeftFoot  29.7259 1.94919 -7.33536
LeftToes  -40.9911 1.18758e-006 1.19596e-007
381
root  -69.2374 30.6655 35.3666 -174.989 10.8088 170.957
RightUpLeg  -41.1556 -13.7793 16.5754
RightLeg  31.2417 -15.0653 -7.72665
RightFoot  -20.7995 1.07833 6.2483
RightToes  14.4471 0.0184275 0.139763
Spine  8.46474 -1.49438 -4.047
Spine1  16.8822 -2.48505 -8.16239
HEad  28.4358 -33.2112 20.9539
LeftShoulder1  0 -2.42657e-020 -4.95415e-022
LeftArm  -49.5118 50.4815 -93.8188
LeftForeArm  -162.172 -37.0683 -7.16735
LeftHand  9.22482 -35.7476 -28.4653
RightShoulder  0 2.42657e-020 1.07489e-018
RightArm  -15.7878 -21.7783 87.3111
RightForeArm  34.4474 51.9858 13.071
RightHand  -2.03845 22.7237 -9.75177
LeftUpLeg  -8.59454 7.23368 6.99576
LeftLeg  68.2252 -9.34549 -18.849
LeftFoot  29.2041 2.83693 -10.8592
LeftToes  -40.1929 1.18758e-006 1.19596e-007
382
root  -68.9532 29.8892 33.7683 -177.576 17.7992 170.169
RightUpLeg  -42.2986 -3.00534 13.6042
RightLeg  43.6753 -12.7967 -10.5453
RightFoot  -19.1879 0.889812 5.63842
RightToes  17.6593 0.0177044 0.171177
Spine  8.46992 -1.31834 -3.31077
Spine1  16.7949 -2.22199 -6.7966
HEad  25.9522 -35.8285 22.4917
LeftShoulder1  0 -2.42657e-020 -4.95415e-022
LeftArm  -44.4823 49.6993 -103.049
LeftForeArm  -156.749 -35.9793 -6.87266
LeftHand  9.01847 -34.2322 -29.1038
RightShoulder  0 2.42657e-020 1.07489e-018
RightArm  -16.7279 -18.6234 87.0294
RightForeArm  34.0331 46.7094 10.8048
RightHand  -1.78413 23.6028 -8.15618
LeftUpLeg  -9.7707 8.93989 7.68281
LeftLeg  74.0444 -5.89608 -16.0791
LeftFoot  21.9101 1.29227 -6.66888
LeftToes  -41.673 1.18758e-006 1.19596e-007
383
root  -68.4381 29.3926 32.3628 -179.772 24.0857 168.899
RightUpLeg  -40.4578 1.79789 13.2478
RightLeg  48.929 -11.3184 -11.2293
RightFoot  -21.9004 1.11356 6.12855
RightToes  19.1282 0.0174933 0.185518
Spine  9.1626 -1.64839 -2.78995
Spine1  18.0621 -2.82518 -6.18583
HEad  22.0441 -36.2561 24.9632
LeftShoulder1  0 -2.42657e-020 -4.95415e-022
LeftArm  -32.8979 44.9535 -105.585
LeftForeArm  -144.83 -35.8832 -6.85293
LeftHand  6.0076 -31.6559 -21.3471
RightShoulder  0 2.42657e-020 1.07489e-018
RightArm  -16.3259 -11.0186 87.6391
RightForeArm  33.6357 35.326 7.17545
RightHand  -1.41852 23.8997 -6.32678
LeftUpLeg  -12.8329 9.16947 7.77208
LeftLeg  77.3617 -2.52571 -8.58237
LeftFoot  17.2366 0.414711 -2.73574
LeftToes  -37.7493 1.18758e-006 1.19596e-007
384
root  -67.891 29.0242 31.2689 178.844 29.7309 166.606
RightUpLeg  -39.7824 4.44835 12.5486
RightLeg  52.8534 -8.97804 -10.2841
RightFoot  -24.8595 1.19471 5.7943
RightToes  15.9475 0.0175821 0.15444
Spine  9.75444 -1.79419 -2.46774
Spine1  18.7298 -2.83009 -6.71513
HEad  22.0099 -37.0576 26.8364
LeftShoulder1  0 -2.42657e-020 -4.95415e-022
LeftArm  -15.3858 41.0205 -102.148
LeftForeArm  -137.448 -40.5946 -8.19511
LeftHand  5.09245 -33.0909 -17.3999
RightShoulder  0 2.42657e-020 1.07489e-018
RightArm  -19.1861 -4.34225 89.7935
RightForeArm  37.3603 27.9079 5.34679
RightHand  -1.52995 24.42 -6.69346
LeftUpLeg  -18.4042 7.62961 6.52502
LeftLeg  78.8306 -0.670646 -2.5535
LeftFoot  9.93662 0.044356 -0.510248
LeftToes  -30.7532 1.18758e-006 1.19596e-007
385
root  -67.1461 28.9757 30.3523 178.26 36.2993 165.124
RightUpLeg  -37.6986 6.92176 12.8342
RightLeg  53.5471 -7.53939 -8.89657
RightFoot  -26.9968 1.16557 5.2305
RightToes  12.2972 0.0172451 0.118736
Spine  10.4336 -1.58199 -2.11067
Spine1  19.4858 -1.93293 -7.22143
HEad  22.402 -37.759 29.0015
LeftShoulder1  0 -2.42657e-020 -4.95415e-022
LeftArm  -9.43874 37.4865 -97.8439
LeftForeArm  -126.026 -42.4107 -8.78237
LeftHand  5.16361 -26.9952 -21.6535
RightShoulder  0 2.42657e-020 1.07489e-018
RightArm  -29.5534 3.44248 93.0929
RightForeArm  46.6658 18.7967 3.41636
RightHand  -1.67009 24.9277 -7.17722
LeftUpLeg  -24.1547 6.79373 6.60131
LeftLeg  77.2765 0.63191 2.12179
LeftFoot  2.30085 -0.00157225 0.0782851
LeftToes  -25.3001 1.18758e-006 1.19596e-007
386
root  -66.339 29.2159 29.516 177.952 43.4833 162.954
RightUpLeg  -35.1265 9.44459 12.4252
RightLeg  51.602 -5.65304 -6.27356
RightFoot  -27.6986 0.834728 3.76255
RightToes  9.12971 0.0157546 0.0878259
Spine  10.6723 -1.10375 -1.98062
Spine1  19.5006 -0.45115 -7.80775
HEad  22.1346 -38.1691 30.8132
LeftShoulder1  0 -2.42657e-020 -4.95415e-022
LeftArm  -10.3636 34.5653 -92.7582
LeftForeArm  -118.761 -40.5249 -8.21379
LeftHand  8.06514 -26.098 -34.2147
RightShoulder  0 2.42657e-020 1.07489e-018
RightArm  -44.2459 8.89929 95.4637
RightForeArm  56.4265 12.4632 2.19483
RightHand  -2.33444 22.7776 -11.1846
LeftUpLeg  -29.995 5.23173 6.12507
LeftLeg  73.1977 1.88846 5.02276
LeftFoot  -1.71281 -0.0013646 -0.0912971
LeftToes  -19.165 1.18758e-006 1.19596e-007
